<svg width="56" height="56" viewBox="0 0 56 56" fill="none" xmlns="http://www.w3.org/2000/svg">
<path d="M47.5969 5.6001H8.39687C5.31687 5.6001 2.79688 8.1201 2.79688 11.2001V39.2001C2.79688 42.2801 5.31687 44.8001 8.39687 44.8001H19.5969V48.1601H15.6769C15.0609 48.1601 14.5569 48.6641 14.5569 49.2801C14.5569 49.8961 15.0609 50.4001 15.6769 50.4001H40.3169C40.9329 50.4001 41.4369 49.8961 41.4369 49.2801C41.4369 48.6641 40.9329 48.1601 40.3169 48.1601H36.3969V44.8001H47.5969C50.6769 44.8001 53.1969 42.2801 53.1969 39.2001V11.2001C53.1969 8.1201 50.6769 5.6001 47.5969 5.6001ZM34.1569 48.1601H21.8369V44.8001H34.1569V48.1601ZM47.5969 42.5601H8.39687C6.54888 42.5601 5.03688 41.0481 5.03688 39.2001H50.9569C50.9569 41.0481 49.4449 42.5601 47.5969 42.5601ZM50.9569 36.9601H5.03688V11.2001C5.03688 9.3521 6.54888 7.8401 8.39687 7.8401H47.5969C49.4449 7.8401 50.9569 9.3521 50.9569 11.2001V36.9601ZM43.0049 25.1441C43.7889 24.0241 44.2369 22.6801 44.2369 21.2801C44.2369 17.5841 41.2129 14.5601 37.5169 14.5601C33.8209 14.5601 30.7969 17.5841 30.7969 21.2801C30.7969 24.9761 33.8209 28.0001 37.5169 28.0001C38.9729 28.0001 40.3169 27.5521 41.3809 26.7681L44.5729 29.9041C44.7969 30.1281 45.0769 30.2401 45.3569 30.2401C45.6369 30.2401 45.9169 30.1281 46.1409 29.9041C46.5889 29.4561 46.5889 28.7841 46.1409 28.3361L43.0049 25.1441ZM37.5169 25.7601C35.0529 25.7601 33.0369 23.7441 33.0369 21.2801C33.0369 18.8161 35.0529 16.8001 37.5169 16.8001C39.9809 16.8001 41.9969 18.8161 41.9969 21.2801C41.9969 23.7441 39.9809 25.7601 37.5169 25.7601ZM26.3169 15.6801C26.3169 16.2961 25.8129 16.8001 25.1969 16.8001H10.6369C10.0209 16.8001 9.51688 16.2961 9.51688 15.6801C9.51688 15.0641 10.0209 14.5601 10.6369 14.5601H25.1969C25.8129 14.5601 26.3169 15.0641 26.3169 15.6801ZM26.3169 22.4001C26.3169 23.0161 25.8129 23.5201 25.1969 23.5201H10.6369C10.0209 23.5201 9.51688 23.0161 9.51688 22.4001C9.51688 21.7841 10.0209 21.2801 10.6369 21.2801H25.1969C25.8129 21.2801 26.3169 21.7841 26.3169 22.4001ZM26.3169 29.1201C26.3169 29.7361 25.8129 30.2401 25.1969 30.2401H10.6369C10.0209 30.2401 9.51688 29.7361 9.51688 29.1201C9.51688 28.5041 10.0209 28.0001 10.6369 28.0001H25.1969C25.8129 28.0001 26.3169 28.5041 26.3169 29.1201Z" fill="#56994C"/>
</svg>
