<svg width="56" height="56" viewBox="0 0 56 56" fill="none" xmlns="http://www.w3.org/2000/svg">
<path d="M47.5969 3.13623H8.39687C5.31687 3.13623 2.79688 5.65623 2.79688 8.73623V41.2162C2.79688 44.2962 5.31687 46.8162 8.39687 46.8162H24.0769V47.9362C24.0769 48.3282 24.3009 48.6642 24.6369 48.8882C24.9729 49.1122 25.3649 49.1122 25.7009 48.9442L29.2289 47.2082L31.7489 52.2482C31.8609 52.5282 32.1409 52.6962 32.4209 52.8082C32.5329 52.8642 32.6449 52.8642 32.7569 52.8642C32.9249 52.8642 33.0929 52.8082 33.2609 52.7522L38.2449 50.2322C38.8049 49.9522 39.0289 49.2802 38.7489 48.7202L37.7969 46.8162H47.5969C50.6769 46.8162 53.1969 44.2962 53.1969 41.2162V8.73623C53.1969 5.65623 50.6769 3.13623 47.5969 3.13623ZM33.2049 50.2322L30.6849 45.2482C30.4609 44.8562 30.0689 44.6322 29.6769 44.6322C29.5089 44.6322 29.3409 44.6882 29.1729 44.7442L26.3169 46.1442V32.7042L37.0689 40.7682L34.1569 42.2242C33.5969 42.5042 33.3729 43.1762 33.6529 43.7362L36.1729 48.7762L33.2049 50.2322ZM50.9569 41.2162C50.9569 43.0642 49.4449 44.5762 47.5969 44.5762H36.6769L36.2289 43.6802L39.7569 41.9442C40.0929 41.7762 40.3169 41.4402 40.3729 41.0482C40.4289 40.6562 40.2609 40.2642 39.9249 40.0402L25.9249 29.5122C25.5889 29.2322 25.1409 29.2322 24.7489 29.4002C24.3569 29.5682 24.1329 29.9602 24.1329 30.4082V44.5762H8.39687C6.54888 44.5762 5.03688 43.0642 5.03688 41.2162V16.5762H50.9569V41.2162ZM50.9569 14.3362H5.03688V8.73623C5.03688 6.88823 6.54888 5.37623 8.39687 5.37623H47.5969C49.4449 5.37623 50.9569 6.88823 50.9569 8.73623V14.3362ZM10.6369 9.85623C10.6369 10.4722 10.1329 10.9762 9.51688 10.9762C8.90088 10.9762 8.39687 10.4722 8.39687 9.85623C8.39687 9.24023 8.90088 8.73623 9.51688 8.73623C10.1329 8.73623 10.6369 9.24023 10.6369 9.85623ZM16.2369 9.85623C16.2369 10.4722 15.7329 10.9762 15.1169 10.9762C14.5009 10.9762 13.9969 10.4722 13.9969 9.85623C13.9969 9.24023 14.5009 8.73623 15.1169 8.73623C15.7329 8.73623 16.2369 9.24023 16.2369 9.85623ZM21.8369 9.85623C21.8369 10.4722 21.3329 10.9762 20.7169 10.9762C20.1009 10.9762 19.5969 10.4722 19.5969 9.85623C19.5969 9.24023 20.1009 8.73623 20.7169 8.73623C21.3329 8.73623 21.8369 9.24023 21.8369 9.85623ZM20.7169 23.9122C20.4369 23.3522 20.6609 22.6802 21.2209 22.4002C21.7809 22.1202 22.4529 22.3442 22.7329 22.9042L23.7409 24.9202C24.0209 25.4802 23.7969 26.1522 23.2369 26.4322C23.0689 26.4882 22.9009 26.5442 22.7329 26.5442C22.3409 26.5442 21.9489 26.3202 21.7249 25.9282L20.7169 23.9122ZM31.8049 29.2882C31.5249 28.7282 31.7489 28.0562 32.3089 27.7762L34.3249 26.7682C34.8849 26.4882 35.5569 26.7122 35.8369 27.2722C36.1169 27.8322 35.8929 28.5042 35.3329 28.7842L33.3169 29.7922C33.1489 29.8482 32.9809 29.9042 32.8129 29.9042C32.4209 29.9602 32.0289 29.6802 31.8049 29.2882ZM20.3249 35.0562C20.6049 35.6162 20.3809 36.2882 19.8209 36.5682L17.8049 37.5762C17.6369 37.6322 17.4689 37.6882 17.3009 37.6882C16.9089 37.6882 16.5169 37.4642 16.2929 37.0722C16.0129 36.5122 16.2369 35.8402 16.7969 35.5602L18.8129 34.5522C19.3729 34.2722 20.0449 34.4962 20.3249 35.0562ZM27.3809 24.6402L28.1089 22.5122C28.2769 21.8962 28.9489 21.6162 29.5089 21.7842C30.0689 21.9522 30.4049 22.6242 30.2369 23.1842L29.5089 25.3122C29.3409 25.7602 28.8929 26.0962 28.4449 26.0962C28.3329 26.0962 28.2209 26.0962 28.1089 26.0402C27.5489 25.8722 27.2129 25.2562 27.3809 24.6402ZM15.7329 28.7282C15.9009 28.1122 16.5729 27.8322 17.1329 28.0002L19.2609 28.7282C19.8209 28.8962 20.1569 29.5682 19.9889 30.1282C19.8209 30.5762 19.3729 30.9122 18.9249 30.9122C18.8129 30.9122 18.7009 30.9122 18.5889 30.8562L16.4609 30.1282C15.8449 29.9602 15.5089 29.3442 15.7329 28.7282Z" fill="#56994C"/>
</svg>
