<svg width="56" height="56" viewBox="0 0 56 56" fill="none" xmlns="http://www.w3.org/2000/svg">
<path d="M49.8369 28.0002H49.5009L46.9809 21.2242C46.4769 19.9362 45.1889 19.0402 43.7889 19.0402H35.2769V14.5602C35.2769 12.7122 33.7649 11.2002 31.9169 11.2002H6.15688C4.30888 11.2002 2.79688 12.7122 2.79688 14.5602V38.0802C2.79688 39.9282 4.30888 41.4402 6.15688 41.4402H8.56488C9.06888 43.3442 10.8049 44.8002 12.8769 44.8002C14.2209 44.8002 15.3969 44.1842 16.2369 43.2882C17.0769 44.2402 18.2529 44.8002 19.5969 44.8002C21.6689 44.8002 23.4049 43.3442 23.9089 41.4402H38.7489C39.2529 43.3442 40.9889 44.8002 43.0609 44.8002C45.1329 44.8002 46.8689 43.3442 47.3729 41.4402H49.8369C51.6849 41.4402 53.1969 39.9282 53.1969 38.0802V31.3602C53.1969 29.5122 51.6849 28.0002 49.8369 28.0002ZM12.8769 42.5602C11.6449 42.5602 10.6369 41.5522 10.6369 40.3202C10.6369 39.0882 11.6449 38.0802 12.8769 38.0802C14.1089 38.0802 15.1169 39.0882 15.1169 40.3202C15.1169 41.5522 14.1089 42.5602 12.8769 42.5602ZM19.5969 42.5602C18.3649 42.5602 17.3569 41.5522 17.3569 40.3202C17.3569 39.0882 18.3649 38.0802 19.5969 38.0802C20.8289 38.0802 21.8369 39.0882 21.8369 40.3202C21.8369 41.5522 20.8289 42.5602 19.5969 42.5602ZM33.0369 39.2002H23.9089C23.4049 37.2962 21.6689 35.8402 19.5969 35.8402C18.2529 35.8402 17.0769 36.4562 16.2369 37.3522C15.3969 36.4002 14.2209 35.8402 12.8769 35.8402C10.8049 35.8402 9.06888 37.2962 8.56488 39.2002H6.15688C5.54088 39.2002 5.03688 38.6962 5.03688 38.0802V33.6002H33.0369V39.2002ZM33.0369 31.3602H5.03688V14.5602C5.03688 13.9442 5.54088 13.4402 6.15688 13.4402H31.9169C32.5329 13.4402 33.0369 13.9442 33.0369 14.5602V31.3602ZM40.8769 21.2802H43.7889C44.2369 21.2802 44.6849 21.5602 44.8529 22.0082L47.0929 28.0002H40.8769V21.2802ZM43.1169 42.5602C41.8849 42.5602 40.8769 41.5522 40.8769 40.3202C40.8769 39.0882 41.8849 38.0802 43.1169 38.0802C44.3489 38.0802 45.3569 39.0882 45.3569 40.3202C45.3569 41.5522 44.3489 42.5602 43.1169 42.5602ZM50.9569 32.4802H48.7169C48.1009 32.4802 47.5969 32.9842 47.5969 33.6002C47.5969 34.2162 48.1009 34.7202 48.7169 34.7202H50.9569V38.0802C50.9569 38.6962 50.4529 39.2002 49.8369 39.2002H47.4289C46.9249 37.2962 45.1889 35.8402 43.1169 35.8402C41.0449 35.8402 39.3089 37.2962 38.8049 39.2002H35.2769V21.2802H38.6369V29.1202C38.6369 29.7362 39.1409 30.2402 39.7569 30.2402H48.7169H49.8369C50.4529 30.2402 50.9569 30.7442 50.9569 31.3602V32.4802Z" fill="#56994C"/>
</svg>
