<svg width="56" height="56" viewBox="0 0 56 56" fill="none" xmlns="http://www.w3.org/2000/svg">
<path d="M40.8784 2.7998H15.1184C11.4224 2.7998 8.39844 5.8238 8.39844 9.5198V15.1198C8.39844 18.8158 11.4224 21.8398 15.1184 21.8398H16.7984V26.3198C16.7984 26.7118 17.0224 27.1038 17.4144 27.3278C17.5824 27.3838 17.7504 27.4398 17.9184 27.4398C18.1424 27.4398 18.3664 27.3838 18.5904 27.2158L26.0944 21.8398H40.8784C44.5744 21.8398 47.5984 18.8158 47.5984 15.1198V9.5198C47.5984 5.8238 44.5744 2.7998 40.8784 2.7998ZM45.3584 15.1198C45.3584 17.5838 43.3424 19.5998 40.8784 19.5998H25.7584C25.5344 19.5998 25.3104 19.6558 25.0864 19.8238L19.0384 24.1358V20.7198C19.0384 20.1038 18.5344 19.5998 17.9184 19.5998H15.1184C12.6544 19.5998 10.6384 17.5838 10.6384 15.1198V9.5198C10.6384 7.0558 12.6544 5.0398 15.1184 5.0398H40.8784C43.3424 5.0398 45.3584 7.0558 45.3584 9.5198V15.1198ZM41.9984 15.1198C41.9984 15.7358 41.4944 16.2398 40.8784 16.2398H15.1184C14.5024 16.2398 13.9984 15.7358 13.9984 15.1198C13.9984 14.5038 14.5024 13.9998 15.1184 13.9998H40.8784C41.4944 13.9998 41.9984 14.5038 41.9984 15.1198ZM41.9984 9.5198C41.9984 10.1358 41.4944 10.6398 40.8784 10.6398H15.1184C14.5024 10.6398 13.9984 10.1358 13.9984 9.5198C13.9984 8.9038 14.5024 8.3998 15.1184 8.3998H40.8784C41.4944 8.3998 41.9984 8.9038 41.9984 9.5198ZM20.7184 39.5358C21.7264 38.6398 22.3984 37.2958 22.3984 35.8398C22.3984 33.0398 20.1584 30.7998 17.3584 30.7998C14.5584 30.7998 12.3184 33.0398 12.3184 35.8398C12.3184 37.2958 12.9344 38.6398 13.9984 39.5358C11.9824 40.7118 10.6384 42.8398 10.6384 45.3598V49.8398C10.6384 51.6878 12.1504 53.1998 13.9984 53.1998H20.7184C22.5664 53.1998 24.0784 51.6878 24.0784 49.8398V45.3598C24.0784 42.8958 22.7344 40.7118 20.7184 39.5358ZM14.5584 35.8398C14.5584 34.2718 15.7904 33.0398 17.3584 33.0398C18.9264 33.0398 20.1584 34.2718 20.1584 35.8398C20.1584 37.4078 18.9264 38.6398 17.3584 38.6398C15.7904 38.6398 14.5584 37.4078 14.5584 35.8398ZM21.8384 49.8398C21.8384 50.4558 21.3344 50.9598 20.7184 50.9598H13.9984C13.3824 50.9598 12.8784 50.4558 12.8784 49.8398V45.3598C12.8784 42.8958 14.8944 40.8798 17.3584 40.8798C19.8224 40.8798 21.8384 42.8958 21.8384 45.3598V49.8398ZM41.9984 39.5358C43.0064 38.6398 43.6784 37.2958 43.6784 35.8398C43.6784 33.0398 41.4384 30.7998 38.6384 30.7998C35.8384 30.7998 33.5984 33.0398 33.5984 35.8398C33.5984 37.2958 34.2144 38.6398 35.2784 39.5358C33.2624 40.7118 31.9184 42.8398 31.9184 45.3598V49.8398C31.9184 51.6878 33.4304 53.1998 35.2784 53.1998H41.9984C43.8464 53.1998 45.3584 51.6878 45.3584 49.8398V45.3598C45.3584 42.8958 44.0144 40.7118 41.9984 39.5358ZM35.8384 35.8398C35.8384 34.2718 37.0704 33.0398 38.6384 33.0398C40.2064 33.0398 41.4384 34.2718 41.4384 35.8398C41.4384 37.4078 40.2064 38.6398 38.6384 38.6398C37.0704 38.6398 35.8384 37.4078 35.8384 35.8398ZM43.1184 49.8398C43.1184 50.4558 42.6144 50.9598 41.9984 50.9598H35.2784C34.6624 50.9598 34.1584 50.4558 34.1584 49.8398V45.3598C34.1584 42.8958 36.1744 40.8798 38.6384 40.8798C41.1024 40.8798 43.1184 42.8958 43.1184 45.3598V49.8398Z" fill="#56994C"/>
</svg>
