<svg width="56" height="56" viewBox="0 0 56 56" fill="none" xmlns="http://www.w3.org/2000/svg">
<path d="M43.1234 15.2878V6.1598C43.1234 4.3118 41.6114 2.7998 39.7634 2.7998H12.8834C11.0354 2.7998 9.52344 4.3118 9.52344 6.1598V41.9998C9.52344 43.8478 11.0354 45.3598 12.8834 45.3598H37.5234V46.4798C37.5234 46.7038 37.5794 46.8718 37.6914 47.0398L41.0514 52.6398C41.2754 52.9758 41.6114 53.1998 42.0034 53.1998C42.3954 53.1998 42.7314 52.9758 42.9554 52.6398L46.3154 47.0398C46.4274 46.8718 46.4834 46.6478 46.4834 46.4798V19.5998C46.4834 17.5278 45.0274 15.7358 43.1234 15.2878ZM37.5234 19.5998V43.1198H12.8834C12.2674 43.1198 11.7634 42.6158 11.7634 41.9998V6.1598C11.7634 5.5438 12.2674 5.0398 12.8834 5.0398H39.7634C40.3794 5.0398 40.8834 5.5438 40.8834 6.1598V15.2878C38.9794 15.7358 37.5234 17.5278 37.5234 19.5998ZM44.2434 46.1998L42.0034 49.9518L39.7634 46.1998V24.0798H44.2434V46.1998ZM44.2434 21.8398H39.7634V19.5998C39.7634 18.3678 40.7714 17.3598 42.0034 17.3598C43.2354 17.3598 44.2434 18.3678 44.2434 19.5998V21.8398ZM15.1234 9.5198C15.1234 8.9038 15.6274 8.3998 16.2434 8.3998H25.2034C25.8194 8.3998 26.3234 8.9038 26.3234 9.5198C26.3234 10.1358 25.8194 10.6398 25.2034 10.6398H16.2434C15.6274 10.6398 15.1234 10.1358 15.1234 9.5198ZM34.1634 38.6398C34.1634 39.2558 33.6594 39.7598 33.0434 39.7598H24.0834C23.4674 39.7598 22.9634 39.2558 22.9634 38.6398C22.9634 38.0238 23.4674 37.5198 24.0834 37.5198H33.0434C33.6594 37.5198 34.1634 38.0238 34.1634 38.6398ZM34.1634 15.1198C34.1634 15.7358 33.6594 16.2398 33.0434 16.2398H16.2434C15.6274 16.2398 15.1234 15.7358 15.1234 15.1198C15.1234 14.5038 15.6274 13.9998 16.2434 13.9998H33.0434C33.6594 13.9998 34.1634 14.5038 34.1634 15.1198ZM34.1634 20.7198C34.1634 21.3358 33.6594 21.8398 33.0434 21.8398H16.2434C15.6274 21.8398 15.1234 21.3358 15.1234 20.7198C15.1234 20.1038 15.6274 19.5998 16.2434 19.5998H33.0434C33.6594 19.5998 34.1634 20.1038 34.1634 20.7198Z" fill="#56994C"/>
</svg>
