<svg width="56" height="56" viewBox="0 0 56 56" fill="none" xmlns="http://www.w3.org/2000/svg">
<path d="M49.8369 18.4801H46.4209C43.6209 10.7521 36.2849 5.6001 27.9969 5.6001C19.7089 5.6001 12.3729 10.7521 9.57288 18.4801H6.15688C4.30888 18.4801 2.79688 19.9921 2.79688 21.8401V28.5601C2.79688 30.4081 4.30888 31.9201 6.15688 31.9201H10.3569C10.6929 31.9201 11.0289 31.7521 11.2529 31.4721C11.4769 31.1921 11.5329 30.8001 11.4209 30.4641C10.8609 28.7841 10.5809 26.9921 10.5809 25.2001C10.5809 23.4081 10.8609 21.6161 11.4209 19.9361C13.7729 12.7121 20.3809 7.8401 27.9969 7.8401C35.6129 7.8401 42.2209 12.7121 44.5169 19.9361C45.0769 21.6161 45.3569 23.4081 45.3569 25.2001C45.3569 26.9921 45.0769 28.7841 44.5169 30.4641C42.2209 37.6881 35.6129 42.5601 27.9969 42.5601H19.5969C17.4129 42.5601 15.6769 44.2961 15.6769 46.4801C15.6769 48.6641 17.4129 50.4001 19.5969 50.4001H25.1969C27.3809 50.4001 29.1169 48.6641 29.1169 46.4801V44.7441C36.9569 44.2961 43.7329 39.3121 46.4209 31.9201H49.8369C51.6849 31.9201 53.1969 30.4081 53.1969 28.5601V21.8401C53.1969 19.9921 51.6849 18.4801 49.8369 18.4801ZM8.90087 29.6801H6.15688C5.54087 29.6801 5.03688 29.1761 5.03688 28.5601V21.8401C5.03688 21.2241 5.54087 20.7201 6.15688 20.7201H8.90087C8.56487 22.1761 8.39687 23.6881 8.39687 25.2001C8.39687 26.7121 8.56487 28.2241 8.90087 29.6801ZM26.8769 46.4801C26.8769 47.4321 26.1489 48.1601 25.1969 48.1601H19.5969C18.6449 48.1601 17.9169 47.4321 17.9169 46.4801C17.9169 45.5281 18.6449 44.8001 19.5969 44.8001H26.8769V46.4801ZM50.9569 28.5601C50.9569 29.1761 50.4529 29.6801 49.8369 29.6801H47.0929C47.4289 28.2241 47.5969 26.7121 47.5969 25.2001C47.5969 23.6881 47.4289 22.1761 47.0929 20.7201H49.8369C50.4529 20.7201 50.9569 21.2241 50.9569 21.8401V28.5601ZM41.9969 25.2001C41.9969 17.4721 35.7249 11.2001 27.9969 11.2001C20.2689 11.2001 13.9969 17.4721 13.9969 25.2001C13.9969 28.5601 15.1729 31.7521 17.3569 34.2721L14.3329 37.2961C13.9969 37.6321 13.9409 38.0801 14.1089 38.5281C14.2769 38.9201 14.6689 39.2001 15.1169 39.2001H27.9969C35.7249 39.2001 41.9969 32.9281 41.9969 25.2001ZM19.7089 33.4881C17.4689 31.2481 16.2369 28.3361 16.2369 25.2001C16.2369 18.7041 21.5009 13.4401 27.9969 13.4401C34.4929 13.4401 39.7569 18.7041 39.7569 25.2001C39.7569 31.6961 34.4929 36.9601 27.9969 36.9601H17.8049L19.6529 35.1121C20.1009 34.6641 20.1009 33.9361 19.7089 33.4881ZM26.8769 25.2001C26.8769 24.5841 27.3809 24.0801 27.9969 24.0801C28.6129 24.0801 29.1169 24.5841 29.1169 25.2001C29.1169 25.8161 28.6129 26.3201 27.9969 26.3201C27.3809 26.3201 26.8769 25.8161 26.8769 25.2001ZM32.4769 25.2001C32.4769 24.5841 32.9809 24.0801 33.5969 24.0801C34.2129 24.0801 34.7169 24.5841 34.7169 25.2001C34.7169 25.8161 34.2129 26.3201 33.5969 26.3201C32.9809 26.3201 32.4769 25.8161 32.4769 25.2001ZM21.2769 25.2001C21.2769 24.5841 21.7809 24.0801 22.3969 24.0801C23.0129 24.0801 23.5169 24.5841 23.5169 25.2001C23.5169 25.8161 23.0129 26.3201 22.3969 26.3201C21.7809 26.3201 21.2769 25.8161 21.2769 25.2001Z" fill="#56994C"/>
</svg>
